<svg width="98" height="86" viewBox="0 0 98 86" fill="none" xmlns="http://www.w3.org/2000/svg">
<g clip-path="url(#clip0_2003_286)">
<path d="M85.664 70.1887C44.1788 86.8178 18.4326 72.9047 1.95166 64.4542C0.931821 63.9216 -0.801542 64.5787 0.702388 66.0337C6.19301 71.641 24.187 85.1564 47.6743 85.1564C71.1778 85.1564 85.1602 74.3547 86.9093 72.4704C88.6466 70.6021 87.4194 69.5715 85.6636 70.1887H85.664ZM97.315 64.7693C96.201 63.5474 90.5408 63.3197 86.9787 63.6882C83.4111 64.0461 78.056 65.8826 78.5216 66.9853C78.7605 67.3983 79.2481 67.2131 81.699 67.0274C84.1565 66.8209 91.0411 66.0891 92.4756 67.6686C93.9169 69.259 90.2799 76.8353 89.6156 78.0572C88.9738 79.2791 89.8608 79.5942 91.0663 78.7804C92.2553 77.9669 94.4077 75.8601 95.8521 72.8788C97.2866 69.8813 98.1618 65.6997 97.315 64.7693Z" fill="#FF9900"/>
<path d="M34.1662 78.2027C47.9195 80.6714 64.7036 80.0183 85.261 71.962C83.8766 73.1532 80.3531 75.7163 74.844 78.1477C68.3577 81.0105 59.1918 83.6564 47.6743 83.6564C27.631 83.6564 11.644 73.5573 4.3729 67.3807C12.1443 71.3406 21.9242 76.0053 34.1662 78.2027ZM1.13488 65.7742C1.13477 65.7739 1.13801 65.7731 1.14493 65.7723C1.13846 65.774 1.135 65.7744 1.13488 65.7742ZM96.0936 65.6105C96.0936 65.6104 96.0946 65.6127 96.0961 65.6176C96.0943 65.613 96.0935 65.6106 96.0936 65.6105ZM87.1284 65.1807L87.1331 65.1802C88.8224 65.0055 91.0354 64.9713 92.9426 65.1274C93.8977 65.2055 94.7312 65.3279 95.364 65.4875C95.6802 65.5673 95.9142 65.6485 96.0744 65.7216C96.0922 65.7297 96.1082 65.7373 96.1226 65.7444C96.1332 65.8167 96.1425 65.9159 96.1459 66.0459C96.1568 66.4707 96.1002 67.06 95.9655 67.7685C95.697 69.1796 95.16 70.8494 94.5004 72.2284C93.9307 73.4035 93.2418 74.4253 92.5636 75.2619C92.7972 74.6993 93.0303 74.1071 93.2458 73.5112C93.6643 72.354 94.0418 71.1151 94.2123 70.0222C94.2973 69.4772 94.3412 68.906 94.2859 68.3681C94.2324 67.8471 94.0687 67.1927 93.5871 66.6613L93.586 66.6601C92.8574 65.8579 91.6956 65.549 90.7831 65.3942C89.7737 65.2229 88.6032 65.1724 87.4632 65.1783C87.3484 65.1789 87.2333 65.1801 87.1181 65.1818C87.1215 65.1814 87.125 65.1811 87.1284 65.1807ZM89.8304 77.7387C89.8306 77.7385 89.8353 77.7373 89.844 77.7359C89.8346 77.7383 89.8302 77.739 89.8304 77.7387ZM90.8878 78.8797C90.8878 78.8798 90.8881 78.8784 90.889 78.8756C90.8883 78.8783 90.8878 78.8797 90.8878 78.8797Z" stroke="url(#paint0_linear_2003_286)" stroke-width="3"/>
<mask id="path-3-inside-1_2003_286" fill="white">
<path fill-rule="evenodd" clip-rule="evenodd" d="M57.7699 36.2571C57.7699 40.6203 57.9008 44.259 55.2824 48.1339C53.169 51.2845 49.8213 53.2219 46.081 53.2219C40.9751 53.2219 38.0016 49.9454 38.0016 45.1097C38.0016 35.5638 48.1566 33.8313 57.7699 33.8313V36.2571ZM71.1791 63.5554C70.3 64.2168 69.0283 64.2643 68.0372 63.823C63.6236 60.7358 62.8379 59.3024 60.4068 56.3566C53.113 62.626 47.9512 64.5003 38.488 64.5003C27.3042 64.5003 18.5889 58.6878 18.5889 47.0471C18.5889 37.9584 24.443 31.7677 32.7648 28.7436C39.9841 26.0654 50.0646 25.5929 57.7699 24.8528V23.4035C57.7699 20.7413 58.0127 17.591 56.1615 15.2913C54.5342 13.2278 51.4297 12.3771 48.699 12.3771C43.631 12.3771 39.105 14.5665 38.0016 19.103C37.7769 20.1114 36.8982 21.1039 35.7013 21.151L22.7967 19.9856C21.7122 19.7804 20.5154 19.0403 20.8146 17.6381C23.7882 4.46976 37.9078 0.5 50.5502 0.5C57.0213 0.5 65.4744 1.94932 70.5803 6.07646C77.0513 11.1642 76.434 17.9532 76.434 25.3409V42.7941C76.434 48.0396 79.0149 50.3392 81.446 53.1748C82.3062 54.1828 82.4934 55.396 81.4086 56.1517C78.6968 58.0576 73.8716 61.602 71.2161 63.5869L71.1787 63.5554"/>
</mask>
<path d="M55.2824 48.1339L52.7967 46.4542L52.791 46.4627L55.2824 48.1339ZM57.7699 33.8313H60.7699V30.8313H57.7699V33.8313ZM68.0372 63.823L66.3177 66.2813L66.5537 66.4464L66.8169 66.5636L68.0372 63.823ZM60.4068 56.3566L62.7206 54.4471L60.7724 52.0864L58.4512 54.0816L60.4068 56.3566ZM32.7648 28.7436L33.7895 31.5632L33.7989 31.5597L33.8083 31.5563L32.7648 28.7436ZM57.7699 24.8528L58.0567 27.8391L60.7699 27.5785V24.8528H57.7699ZM56.1615 15.2913L53.8058 17.149L53.8151 17.1608L53.8246 17.1725L56.1615 15.2913ZM38.0016 19.103L35.0866 18.394L35.0797 18.4222L35.0734 18.4505L38.0016 19.103ZM35.7013 21.151L35.4315 24.1389L35.6251 24.1563L35.8194 24.1487L35.7013 21.151ZM22.7967 19.9856L22.239 22.9333L22.382 22.9603L22.5269 22.9734L22.7967 19.9856ZM20.8146 17.6381L17.8883 16.9773L17.8844 16.9947L17.8807 17.012L20.8146 17.6381ZM70.5803 6.07646L68.6944 8.40958L68.7101 8.42231L68.7261 8.43483L70.5803 6.07646ZM81.446 53.1748L83.7281 51.2274L83.7235 51.2221L81.446 53.1748ZM81.4086 56.1517L79.6938 53.6901L79.6836 53.6973L81.4086 56.1517ZM71.2161 63.5869L69.2835 65.8815L71.1049 67.4155L73.0123 65.9898L71.2161 63.5869ZM54.7699 36.2571C54.7699 40.778 54.82 43.4599 52.7967 46.4542L57.7681 49.8135C60.9815 45.0582 60.7699 40.4626 60.7699 36.2571H54.7699ZM52.791 46.4627C51.1822 48.861 48.7306 50.2219 46.081 50.2219V56.2219C50.912 56.2219 55.1558 53.708 57.7738 49.805L52.791 46.4627ZM46.081 50.2219C44.1877 50.2219 42.9986 49.6308 42.2794 48.8898C41.5468 48.1349 41.0016 46.9136 41.0016 45.1097H35.0016C35.0016 48.1415 35.9432 50.9763 37.9738 53.0686C40.0179 55.1747 42.8684 56.2219 46.081 56.2219V50.2219ZM41.0016 45.1097C41.0016 43.288 41.474 42.0278 42.1587 41.093C42.8659 40.1276 43.9509 39.3055 45.477 38.642C48.6204 37.2752 53.0374 36.8313 57.7699 36.8313V30.8313C52.889 30.8313 47.4219 31.2536 43.0845 33.1396C40.8701 34.1024 38.8156 35.5033 37.3183 37.5475C35.7985 39.6224 35.0016 42.1585 35.0016 45.1097H41.0016ZM54.7699 33.8313V36.2571H60.7699V33.8313H54.7699ZM69.3755 61.1581C69.4204 61.1243 69.4538 61.1108 69.4642 61.1072C69.4734 61.1039 69.4645 61.1083 69.4365 61.1103C69.4085 61.1123 69.3731 61.111 69.3356 61.1045C69.298 61.098 69.271 61.0884 69.2575 61.0824L66.8169 66.5636C68.6201 67.3665 71.0834 67.3816 72.9827 65.9526L69.3755 61.1581ZM69.7567 61.3647C65.7332 58.5503 65.1965 57.4471 62.7206 54.4471L58.093 58.2662C60.4793 61.1577 61.514 62.9212 66.3177 66.2813L69.7567 61.3647ZM58.4512 54.0816C54.954 57.0877 52.1482 58.8826 49.2201 59.9659C46.2922 61.049 43.0263 61.5003 38.488 61.5003V67.5003C43.4129 67.5003 47.4595 67.0145 51.3018 65.5931C55.1438 64.1718 58.5658 61.895 62.3623 58.6317L58.4512 54.0816ZM38.488 61.5003C33.3772 61.5003 29.1371 60.1692 26.2371 57.8113C23.4197 55.5206 21.5889 52.043 21.5889 47.0471H15.5889C15.5889 53.6919 18.1157 58.941 22.4519 62.4667C26.7055 65.9252 32.415 67.5003 38.488 67.5003V61.5003ZM21.5889 47.0471C21.5889 39.5637 26.2944 34.2868 33.7895 31.5632L31.7402 25.924C22.5915 29.2486 15.5889 36.3531 15.5889 47.0471H21.5889ZM33.8083 31.5563C40.5496 29.0554 50.0428 28.6088 58.0567 27.8391L57.483 21.8666C50.0863 22.577 39.4185 23.0754 31.7214 25.9309L33.8083 31.5563ZM60.7699 24.8528V23.4035H54.7699V24.8528H60.7699ZM60.7699 23.4035C60.7699 22.2467 60.8375 20.4955 60.6381 18.8503C60.4294 17.1292 59.9029 15.1548 58.4984 13.4101L53.8246 17.1725C54.2713 17.7275 54.549 18.4781 54.6817 19.5726C54.8236 20.743 54.7699 21.8981 54.7699 23.4035H60.7699ZM58.5171 13.4337C56.0546 10.311 51.809 9.37709 48.699 9.37709V15.3771C51.0504 15.3771 53.0137 16.1445 53.8058 17.149L58.5171 13.4337ZM48.699 9.37709C42.9986 9.37709 36.6662 11.8995 35.0866 18.394L40.9166 19.8121C41.5438 17.2335 44.2633 15.3771 48.699 15.3771V9.37709ZM35.0734 18.4505C35.0839 18.4036 35.0962 18.3795 35.1017 18.3697C35.1077 18.3591 35.1187 18.3422 35.1425 18.3195C35.1941 18.2701 35.3472 18.1626 35.5832 18.1533L35.8194 24.1487C38.7026 24.0351 40.4865 21.7449 40.9298 19.7555L35.0734 18.4505ZM35.9712 18.1632L23.0666 16.9977L22.5269 22.9734L35.4315 24.1389L35.9712 18.1632ZM23.3544 17.0379C23.3003 17.0276 23.2605 17.0129 23.2457 17.0061C23.2281 16.9979 23.286 17.0203 23.3769 17.1087C23.4763 17.2052 23.6157 17.3831 23.7005 17.6461C23.7885 17.9185 23.7738 18.1459 23.7485 18.2642L17.8807 17.012C17.4994 18.7989 18.1165 20.3637 19.1966 21.4127C20.1432 22.3321 21.3225 22.7599 22.239 22.9333L23.3544 17.0379ZM23.7409 18.2989C24.984 12.7938 28.5123 9.16622 33.3576 6.83411C38.2905 4.45988 44.4878 3.5 50.5502 3.5V-2.5C43.9702 -2.5 36.7864 -1.475 30.7555 1.42774C24.637 4.37261 19.6187 9.31412 17.8883 16.9773L23.7409 18.2989ZM50.5502 3.5C56.8079 3.5 64.4006 4.93881 68.6944 8.40958L72.4662 3.74335C66.5483 -1.04018 57.2347 -2.5 50.5502 -2.5V3.5ZM68.7261 8.43483C73.8262 12.4447 73.434 17.4629 73.434 25.3409H79.434C79.434 18.4435 80.2764 9.88363 72.4345 3.7181L68.7261 8.43483ZM73.434 25.3409V42.7941H79.434V25.3409H73.434ZM73.434 42.7941C73.434 49.344 76.9105 52.4938 79.1685 55.1274L83.7235 51.2221C81.1193 48.1846 79.434 46.7351 79.434 42.7941H73.434ZM79.1639 55.1221C79.32 55.305 79.1718 55.2349 79.1586 54.8651C79.151 54.6527 79.1947 54.3906 79.3267 54.1347C79.4568 53.8822 79.6169 53.7437 79.6938 53.6901L83.1233 58.6134C84.4539 57.6865 85.212 56.2506 85.1548 54.6507C85.1041 53.2333 84.4322 52.0526 83.7281 51.2274L79.1639 55.1221ZM79.6836 53.6973C76.9364 55.628 72.0841 59.1927 69.42 61.184L73.0123 65.9898C75.6591 64.0114 80.4572 60.4872 83.1336 58.6062L79.6836 53.6973ZM73.1488 61.2924L73.1113 61.2608L69.2461 65.8499L69.2835 65.8815L73.1488 61.2924Z" fill="url(#paint1_linear_2003_286)" mask="url(#path-3-inside-1_2003_286)"/>
</g>
<defs>
<linearGradient id="paint0_linear_2003_286" x1="0.11377" y1="74.342" x2="97.6472" y2="74.342" gradientUnits="userSpaceOnUse">
<stop stop-color="#FB8A05"/>
<stop offset="1" stop-color="#AC15D9"/>
</linearGradient>
<linearGradient id="paint1_linear_2003_286" x1="18.5889" y1="32.5002" x2="82.1578" y2="32.5002" gradientUnits="userSpaceOnUse">
<stop stop-color="#FB8A05"/>
<stop offset="1" stop-color="#9E00FF"/>
</linearGradient>
<clipPath id="clip0_2003_286">
<rect width="98" height="85" fill="white" transform="translate(0 0.5)"/>
</clipPath>
</defs>
</svg>
