<svg width="142" height="86" viewBox="0 0 142 86" fill="none" xmlns="http://www.w3.org/2000/svg">
<g clip-path="url(#clip0_2003_272)">
<path d="M54.158 51.1466H56.6514C56.0792 52.5384 55.2378 53.5715 54.2208 54.298C52.9111 55.2336 51.2381 55.7112 49.3175 55.7112C46.6291 55.7112 44.5144 54.7164 43.0603 53.0578C41.5942 51.3855 40.7313 48.9577 40.7313 45.9958C40.7313 40.3132 44.2952 36.2411 49.3175 36.2411C52.1695 36.2411 54.2397 37.5199 55.5905 39.5025C56.8183 41.3046 57.4696 43.7243 57.4725 46.3354H44.5572H43.512L43.5582 47.3796C43.6472 49.3903 44.2193 51.0111 45.2996 52.1337C46.3905 53.2673 47.8746 53.7635 49.5145 53.7635C51.7063 53.7635 53.4032 52.6016 54.158 51.1466ZM43.5937 43.7544L43.5002 44.8402H44.59H53.6017H54.73L54.5945 43.7201C54.4136 42.2249 54.0197 40.8084 53.1491 39.7569C52.235 38.653 50.9106 38.0855 49.1862 38.0855C47.4766 38.0855 46.1055 38.7143 45.1431 39.7982C44.2025 40.8577 43.7214 42.2718 43.5937 43.7544ZM114.285 51.1466H116.779C116.206 52.5384 115.365 53.5715 114.348 54.298C113.038 55.2336 111.365 55.7112 109.445 55.7112C106.747 55.7112 104.633 54.716 103.182 53.0583C101.718 51.3865 100.859 48.9588 100.859 45.9958C100.859 40.3132 104.422 36.2411 109.445 36.2411C112.297 36.2411 114.367 37.5199 115.718 39.5025C116.946 41.3046 117.597 43.7243 117.6 46.3354H104.684H103.644L103.685 47.3752C103.765 49.3889 104.338 51.0107 105.419 52.1337C106.509 53.2668 107.993 53.7635 109.625 53.7635C111.829 53.7635 113.53 52.6029 114.285 51.1466ZM103.705 43.7483L103.604 44.8402H104.701H113.729H114.857L114.722 43.7201C114.541 42.225 114.147 40.8077 113.273 39.7557C112.356 38.6517 111.028 38.0855 109.297 38.0855C107.594 38.0855 106.227 38.7157 105.266 39.7982C104.327 40.8559 103.842 42.2677 103.705 43.7483ZM20.5917 43.0255H19.5917V44.0255V55.159H16.4374V28.9781H19.5917V39.5166V40.5166H20.5917H31.7209H32.7209V39.5166V28.9781H35.8751V55.159H32.7209V44.0255V43.0255H31.7209H20.5917ZM77.6014 43.6318V55.159H74.7591V44.3141C74.7591 42.5678 74.4832 41.0726 73.7426 39.9923C72.9505 38.8367 71.7396 38.3117 70.2791 38.3117C68.6655 38.3117 67.2823 38.8159 66.3562 40.087C65.4826 41.286 65.1426 43.005 65.1426 45.1424V55.159H62.2839V36.7934H64.88V38.6294V39.6294H65.88H65.9949H66.577L66.8645 39.1232C67.9722 37.1724 69.893 36.2411 71.7236 36.2411C74.2572 36.2411 75.6171 36.9985 76.4067 38.1211C77.2531 39.3247 77.6014 41.1568 77.6014 43.6318ZM97.8094 36.7934L92.0939 44.1156L91.6423 44.6942L92.0589 45.2985L98.8572 55.159H95.2803L88.6045 44.8713L94.5844 36.7934H97.8094ZM86.5803 45.13V47.6057V55.159H83.7379V28.9781H86.5803V41.7518V44.5742V45.13ZM70.8372 1.57933C90.1617 1.57933 107.618 6.32294 120.21 13.9358C132.822 21.5602 140.404 31.953 140.404 43.2398C140.404 54.5285 132.822 64.9204 120.211 72.5434C107.618 80.1549 90.1618 84.8968 70.8372 84.8968C51.521 84.8968 34.0686 80.155 21.4784 72.5434C8.86912 64.9204 1.28662 54.5285 1.28662 43.2398C1.28662 31.953 8.86912 21.5601 21.4784 13.9358C34.0687 6.32291 51.521 1.57933 70.8372 1.57933ZM70.8372 3.42728C52.2095 3.42728 35.283 7.81492 22.9792 14.9472C10.7018 22.0641 2.84862 32.0374 2.84862 43.2398C2.84862 54.447 10.7021 64.4123 22.9796 71.5201C35.2836 78.6431 52.21 83.0204 70.8372 83.0204C89.4645 83.0204 106.391 78.6431 118.695 71.5201C130.972 64.4123 138.826 54.447 138.826 43.2398C138.826 32.0374 130.973 22.0641 118.695 14.9472C106.391 7.81492 89.4649 3.42728 70.8372 3.42728ZM125.253 28.9781V55.159H122.411V28.9781H125.253Z" stroke="url(#paint0_linear_2003_272)" stroke-width="2"/>
</g>
<defs>
<linearGradient id="paint0_linear_2003_272" x1="141.404" y1="43.2381" x2="0.286621" y2="43.2381" gradientUnits="userSpaceOnUse">
<stop stop-color="#9E00FF"/>
<stop offset="1" stop-color="#FB8A05"/>
</linearGradient>
<clipPath id="clip0_2003_272">
<rect width="142" height="86" fill="white"/>
</clipPath>
</defs>
</svg>
