<svg width="247" height="80" viewBox="0 0 247 80" fill="none" xmlns="http://www.w3.org/2000/svg">
<g clip-path="url(#clip0_2003_277)">
<mask id="path-1-inside-1_2003_277" fill="white">
<path fill-rule="evenodd" clip-rule="evenodd" d="M63.5887 50.0062H69.2785C71.4985 50.0062 72.3426 50.9036 72.3426 53.1016C72.3426 55.218 71.498 56.1144 69.2785 56.1144H63.5887V50.0062ZM54.7742 72.2376H63.5891V63.1975H73.0309C79.2822 63.1975 81.5329 58.8836 81.5329 53.3062C81.5329 46.8318 79.2186 43.1682 72.9673 43.1682H54.7742V72.2376ZM84.4399 43.1682H108.164V50.2508H93.2549V54.1595H107.103V61.2452H93.2549V65.1534H108.164V72.2376H84.4399V43.1682ZM120.669 50.0062H126.358C128.578 50.0062 129.423 50.9036 129.423 53.1016C129.423 55.218 128.578 56.1144 126.358 56.1144H120.669V50.0062ZM111.854 72.2376H120.669V63.1975H130.109C136.362 63.1975 138.613 58.8836 138.613 53.3062C138.613 46.8318 136.299 43.1682 130.046 43.1682H111.854V72.2376ZM147.146 59.9011C142.832 59.0447 141.052 55.7878 141.052 51.7174C141.052 44.1841 146.71 42.1502 153.96 42.1502C163.9 42.1502 167.996 45.5282 168.309 51.6769H158.055C158.055 50.4959 157.523 49.7616 156.712 49.3549C155.93 48.9082 154.931 48.7456 153.96 48.7456C151.335 48.7456 150.429 49.5995 150.429 50.8221C150.429 51.6349 150.709 52.1662 151.585 52.3282L162.119 54.3631C166.558 55.218 169.309 57.9052 169.309 62.8304C169.309 69.917 164.87 73.2555 154.961 73.2555C148.178 73.2555 140.769 72.0345 140.738 63.4842H151.366C151.396 64.4601 151.679 65.1114 152.305 65.5596C152.959 65.9673 153.929 66.1714 155.304 66.1714C158.054 66.1714 158.806 65.1934 158.806 63.8088C158.806 62.9539 158.398 62.0996 157.213 61.8564L147.146 59.9011ZM172.184 43.1682H180.998V72.2376H172.184V43.1682ZM213.667 60.919C213.104 64.7462 212.102 67.8406 209.914 69.957C207.759 72.0745 204.381 73.2555 199.006 73.2555C193.661 73.2555 183.751 72.7658 183.751 57.7036C183.751 42.6384 193.661 42.1497 199.006 42.1497C204.319 42.1497 212.509 43.0446 213.667 54.5682H203.726C203.476 52.4898 202.412 49.4775 199.006 49.4775C195.409 49.4775 193.128 51.798 193.128 57.7031C193.128 63.6067 195.348 65.9257 198.567 65.9257C201.35 65.9257 203.007 64.4196 203.726 60.9185L213.667 60.919ZM225.201 57.7041C225.201 51.7985 227.483 49.4785 231.079 49.4785C234.673 49.4785 236.956 51.799 236.956 57.7041C236.956 63.6077 234.673 65.9268 231.079 65.9268C227.483 65.9263 225.201 63.6072 225.201 57.7041ZM215.822 57.7041C215.822 72.7658 225.731 73.256 231.078 73.256C236.424 73.256 246.333 72.7663 246.333 57.7041C246.333 42.6389 236.424 42.1502 231.078 42.1502C225.731 42.1502 215.822 42.6384 215.822 57.7041ZM41.4544 43.4563C42.0236 29.5096 31.7568 13.8036 17.7602 11.8623L17.7841 11.6717C31.5826 11.6717 42.1606 26.6363 42.1606 38.4421C42.1474 40.8996 41.9817 42.4223 41.6862 43.5278L41.4544 43.4563ZM40.6183 45.2291C39.7003 46.5432 38.5457 47.8662 37.1929 49.1223C34.7044 32.3554 24.187 17.6938 16.7512 13.4145L16.5919 13.5445C24.07 20.7342 32.9891 34.6979 36.4576 49.7801C34.6884 51.3026 32.7773 52.5847 30.761 53.6018C23.7045 44.1746 17.1257 25.9935 15.0056 14.4564L14.79 14.5324C14.8378 25.7314 21.625 44.7429 29.9019 54.0195C28.0036 54.8995 26.0301 55.5383 24.0153 55.9248C16.0812 52.2427 10.4338 40.4494 10.4338 28.3686C10.4338 20.4821 12.4863 15.6034 12.8834 14.605L12.7144 14.5264C12.234 15.3778 9.22705 20.254 9.22705 28.7683C9.22705 42.4238 14.9757 52.8615 22.6079 56.1484C19.8786 56.5001 17.1192 56.3484 14.43 55.6987L14.3732 55.9068C15.1897 56.259 17.9596 57.6211 22.1852 57.6211C31.7427 57.6211 38.2036 50.6645 40.8045 45.3766L40.6183 45.2291Z"/>
</mask>
<path fill-rule="evenodd" clip-rule="evenodd" d="M63.5887 50.0062H69.2785C71.4985 50.0062 72.3426 50.9036 72.3426 53.1016C72.3426 55.218 71.498 56.1144 69.2785 56.1144H63.5887V50.0062ZM54.7742 72.2376H63.5891V63.1975H73.0309C79.2822 63.1975 81.5329 58.8836 81.5329 53.3062C81.5329 46.8318 79.2186 43.1682 72.9673 43.1682H54.7742V72.2376ZM84.4399 43.1682H108.164V50.2508H93.2549V54.1595H107.103V61.2452H93.2549V65.1534H108.164V72.2376H84.4399V43.1682ZM120.669 50.0062H126.358C128.578 50.0062 129.423 50.9036 129.423 53.1016C129.423 55.218 128.578 56.1144 126.358 56.1144H120.669V50.0062ZM111.854 72.2376H120.669V63.1975H130.109C136.362 63.1975 138.613 58.8836 138.613 53.3062C138.613 46.8318 136.299 43.1682 130.046 43.1682H111.854V72.2376ZM147.146 59.9011C142.832 59.0447 141.052 55.7878 141.052 51.7174C141.052 44.1841 146.71 42.1502 153.96 42.1502C163.9 42.1502 167.996 45.5282 168.309 51.6769H158.055C158.055 50.4959 157.523 49.7616 156.712 49.3549C155.93 48.9082 154.931 48.7456 153.96 48.7456C151.335 48.7456 150.429 49.5995 150.429 50.8221C150.429 51.6349 150.709 52.1662 151.585 52.3282L162.119 54.3631C166.558 55.218 169.309 57.9052 169.309 62.8304C169.309 69.917 164.87 73.2555 154.961 73.2555C148.178 73.2555 140.769 72.0345 140.738 63.4842H151.366C151.396 64.4601 151.679 65.1114 152.305 65.5596C152.959 65.9673 153.929 66.1714 155.304 66.1714C158.054 66.1714 158.806 65.1934 158.806 63.8088C158.806 62.9539 158.398 62.0996 157.213 61.8564L147.146 59.9011ZM172.184 43.1682H180.998V72.2376H172.184V43.1682ZM213.667 60.919C213.104 64.7462 212.102 67.8406 209.914 69.957C207.759 72.0745 204.381 73.2555 199.006 73.2555C193.661 73.2555 183.751 72.7658 183.751 57.7036C183.751 42.6384 193.661 42.1497 199.006 42.1497C204.319 42.1497 212.509 43.0446 213.667 54.5682H203.726C203.476 52.4898 202.412 49.4775 199.006 49.4775C195.409 49.4775 193.128 51.798 193.128 57.7031C193.128 63.6067 195.348 65.9257 198.567 65.9257C201.35 65.9257 203.007 64.4196 203.726 60.9185L213.667 60.919ZM225.201 57.7041C225.201 51.7985 227.483 49.4785 231.079 49.4785C234.673 49.4785 236.956 51.799 236.956 57.7041C236.956 63.6077 234.673 65.9268 231.079 65.9268C227.483 65.9263 225.201 63.6072 225.201 57.7041ZM215.822 57.7041C215.822 72.7658 225.731 73.256 231.078 73.256C236.424 73.256 246.333 72.7663 246.333 57.7041C246.333 42.6389 236.424 42.1502 231.078 42.1502C225.731 42.1502 215.822 42.6384 215.822 57.7041ZM41.4544 43.4563C42.0236 29.5096 31.7568 13.8036 17.7602 11.8623L17.7841 11.6717C31.5826 11.6717 42.1606 26.6363 42.1606 38.4421C42.1474 40.8996 41.9817 42.4223 41.6862 43.5278L41.4544 43.4563ZM40.6183 45.2291C39.7003 46.5432 38.5457 47.8662 37.1929 49.1223C34.7044 32.3554 24.187 17.6938 16.7512 13.4145L16.5919 13.5445C24.07 20.7342 32.9891 34.6979 36.4576 49.7801C34.6884 51.3026 32.7773 52.5847 30.761 53.6018C23.7045 44.1746 17.1257 25.9935 15.0056 14.4564L14.79 14.5324C14.8378 25.7314 21.625 44.7429 29.9019 54.0195C28.0036 54.8995 26.0301 55.5383 24.0153 55.9248C16.0812 52.2427 10.4338 40.4494 10.4338 28.3686C10.4338 20.4821 12.4863 15.6034 12.8834 14.605L12.7144 14.5264C12.234 15.3778 9.22705 20.254 9.22705 28.7683C9.22705 42.4238 14.9757 52.8615 22.6079 56.1484C19.8786 56.5001 17.1192 56.3484 14.43 55.6987L14.3732 55.9068C15.1897 56.259 17.9596 57.6211 22.1852 57.6211C31.7427 57.6211 38.2036 50.6645 40.8045 45.3766L40.6183 45.2291Z" stroke="url(#paint0_linear_2003_277)" stroke-width="4" mask="url(#path-1-inside-1_2003_277)"/>
<path d="M5.98877 18.4692C5.98877 17.1781 6.48854 15.826 7.36625 14.5211C6.96024 15.3437 6.72324 16.1937 6.72324 17.0371C6.72324 18.1525 7.12543 19.0974 7.93435 19.7517C8.72828 20.3938 9.85431 20.708 11.2208 20.708C14.2919 20.708 17.6192 19.3453 20.172 17.4537C21.4524 16.5048 22.5566 15.4095 23.3447 14.2607C24.1302 13.1157 24.6221 11.8866 24.6221 10.6807C24.6221 10.0807 24.4188 9.16278 23.6925 8.39072C23.2303 7.89942 22.5801 7.49218 21.6912 7.25672C22.8808 7.32341 23.8789 7.64998 24.5922 8.18723C25.3796 8.78017 25.8566 9.65476 25.8566 10.8388C25.8566 13.1571 24.1096 15.9347 21.2579 18.1652C18.4275 20.3791 14.6143 21.965 10.6806 21.965C9.01436 21.965 7.84202 21.5299 7.09502 20.8977C6.35412 20.2706 5.98877 19.4149 5.98877 18.4692Z" stroke="url(#paint1_linear_2003_277)"/>
<path d="M2.08301 25.2622C2.08301 25.0216 2.09684 24.7812 2.12126 24.5444C2.37909 25.8829 3.03149 27.0367 4.02256 27.9133C5.32488 29.0652 7.17132 29.7035 9.37618 29.7035C15.0233 29.7035 20.6512 27.2931 24.863 24.0192C26.9716 22.3801 28.7402 20.5132 29.9853 18.6022C31.2274 16.6956 31.9679 14.7144 31.9679 12.8557C31.9679 11.4538 31.5916 10.3667 31.0789 9.53935C32.25 10.5442 33.1738 12.0543 33.1738 14.0777C33.1738 18.1912 30.1851 22.5717 25.7468 25.9568C21.3246 29.3296 15.5823 31.6177 10.2891 31.6177C4.85358 31.6177 2.08301 28.4744 2.08301 25.2622Z" stroke="url(#paint2_linear_2003_277)"/>
<path d="M39.1557 18.112C39.1557 17.6873 39.1325 17.2991 39.0936 16.9467C39.446 17.7274 39.7318 18.7553 39.7318 20.0359C39.7318 25.4414 36.1041 30.8897 30.7408 35.0145C25.3886 39.1308 18.4059 41.8483 11.8828 41.8483C6.26098 41.8483 2.97968 39.5066 1.66405 36.8001C3.20292 38.544 5.98479 40.0876 10.4656 40.0876C17.2574 40.0876 24.4088 37.1747 29.859 33.0079C35.2904 28.8553 39.1557 23.3571 39.1557 18.112Z" stroke="#FB8A05"/>
<path d="M33.2615 42.7918C37.9152 39.3397 41.6841 34.7665 43.0072 29.5195C42.5289 35.0832 38.9931 40.2567 33.9869 44.1453C28.6012 48.3286 21.5892 50.9613 15.092 50.9613C11.1012 50.9613 8.2859 49.5932 6.53232 48.1989C8.56758 49.1855 11.1782 49.8029 14.0224 49.8029C19.9973 49.8029 27.3866 47.1495 33.2615 42.7918Z" stroke="url(#paint3_linear_2003_277)"/>
</g>
<defs>
<linearGradient id="paint0_linear_2003_277" x1="9.22705" y1="42.4638" x2="246.333" y2="42.4638" gradientUnits="userSpaceOnUse">
<stop stop-color="#FB8A05"/>
<stop offset="1" stop-color="#9E00FF"/>
</linearGradient>
<linearGradient id="paint1_linear_2003_277" x1="15.9227" y1="6.74399" x2="15.9227" y2="22.465" gradientUnits="userSpaceOnUse">
<stop stop-color="#FB8A05"/>
<stop offset="1" stop-color="#955203"/>
</linearGradient>
<linearGradient id="paint2_linear_2003_277" x1="17.6284" y1="7.62187" x2="17.6284" y2="32.1177" gradientUnits="userSpaceOnUse">
<stop stop-color="#FF9900"/>
<stop offset="1" stop-color="#995C00"/>
</linearGradient>
<linearGradient id="paint3_linear_2003_277" x1="23.7637" y1="25.2297" x2="23.7637" y2="51.4613" gradientUnits="userSpaceOnUse">
<stop stop-color="#FF9900"/>
<stop offset="1" stop-color="#995C00"/>
</linearGradient>
<clipPath id="clip0_2003_277">
<rect width="246" height="80" fill="white" transform="translate(0.333496)"/>
</clipPath>
</defs>
</svg>
