<svg width="155" height="52" viewBox="0 0 155 52" fill="none" xmlns="http://www.w3.org/2000/svg">
<g id="Visa_Inc._logo 1" clip-path="url(#clip0_2018_1423)">
<g id="g4158">
<g id="polygon9">
<mask id="path-1-inside-1_2018_1423" fill="white">
<path d="M67.1664 51.2498H54.6104L62.4638 0.91243H75.0192L67.1664 51.2498Z"/>
</mask>
<path d="M67.1664 51.2498H54.6104L62.4638 0.91243H75.0192L67.1664 51.2498Z" stroke="url(#paint0_linear_2018_1423)" stroke-width="5" mask="url(#path-1-inside-1_2018_1423)"/>
</g>
<g id="path11">
<mask id="path-2-inside-2_2018_1423" fill="white">
<path d="M112.683 2.14303C110.207 1.12453 106.279 -3.05176e-05 101.422 -3.05176e-05C89.022 -3.05176e-05 80.2904 6.85406 80.2368 16.6534C80.1338 23.8833 86.4884 27.8989 91.2411 30.3096C96.0989 32.7729 97.7502 34.3808 97.7502 36.5765C97.7008 39.9487 93.8249 41.5032 90.2099 41.5032C85.1969 41.5032 82.5109 40.7018 78.429 38.8256L76.7756 38.0213L75.0186 49.321C77.9634 50.7117 83.389 51.9459 89.022 52C102.197 52 110.774 45.2519 110.876 34.8092C110.926 29.079 107.57 24.6882 100.336 21.1003C95.9444 18.7971 93.255 17.2441 93.255 14.8875C93.3065 12.7452 95.5297 10.5509 100.487 10.5509C104.569 10.4434 107.568 11.4605 109.84 12.4783L110.976 13.0128L112.683 2.14303Z"/>
</mask>
<path d="M112.683 2.14303C110.207 1.12453 106.279 -3.05176e-05 101.422 -3.05176e-05C89.022 -3.05176e-05 80.2904 6.85406 80.2368 16.6534C80.1338 23.8833 86.4884 27.8989 91.2411 30.3096C96.0989 32.7729 97.7502 34.3808 97.7502 36.5765C97.7008 39.9487 93.8249 41.5032 90.2099 41.5032C85.1969 41.5032 82.5109 40.7018 78.429 38.8256L76.7756 38.0213L75.0186 49.321C77.9634 50.7117 83.389 51.9459 89.022 52C102.197 52 110.774 45.2519 110.876 34.8092C110.926 29.079 107.57 24.6882 100.336 21.1003C95.9444 18.7971 93.255 17.2441 93.255 14.8875C93.3065 12.7452 95.5297 10.5509 100.487 10.5509C104.569 10.4434 107.568 11.4605 109.84 12.4783L110.976 13.0128L112.683 2.14303Z" stroke="url(#paint1_linear_2018_1423)" stroke-width="5" mask="url(#path-2-inside-2_2018_1423)"/>
</g>
<g id="path13">
<mask id="path-3-inside-3_2018_1423" fill="white">
<path d="M129.372 33.4171C130.406 30.5252 134.385 19.3331 134.385 19.3331C134.332 19.4405 135.417 16.3879 136.037 14.5139L136.914 18.8512C136.914 18.8512 139.292 30.9003 139.808 33.4171C137.846 33.4171 131.852 33.4171 129.372 33.4171ZM144.871 0.91243H135.158C132.163 0.91243 129.888 1.82204 128.596 5.08894L109.945 51.2491H123.12C123.12 51.2491 125.289 45.0363 125.755 43.6982C127.201 43.6982 140.017 43.6982 141.876 43.6982C142.237 45.4655 143.374 51.2491 143.374 51.2491H155L144.871 0.91243Z"/>
</mask>
<path d="M129.372 33.4171C130.406 30.5252 134.385 19.3331 134.385 19.3331C134.332 19.4405 135.417 16.3879 136.037 14.5139L136.914 18.8512C136.914 18.8512 139.292 30.9003 139.808 33.4171C137.846 33.4171 131.852 33.4171 129.372 33.4171ZM144.871 0.91243H135.158C132.163 0.91243 129.888 1.82204 128.596 5.08894L109.945 51.2491H123.12C123.12 51.2491 125.289 45.0363 125.755 43.6982C127.201 43.6982 140.017 43.6982 141.876 43.6982C142.237 45.4655 143.374 51.2491 143.374 51.2491H155L144.871 0.91243Z" stroke="url(#paint2_linear_2018_1423)" stroke-width="5" mask="url(#path-3-inside-3_2018_1423)"/>
</g>
<g id="path15">
<mask id="path-4-inside-4_2018_1423" fill="white">
<path d="M44.1229 0.91243L31.8264 35.2377L30.4827 28.2761C28.2093 20.2434 21.0795 11.516 13.123 7.17649L24.3862 51.1964H37.664L57.3999 0.91243H44.1229Z"/>
</mask>
<path d="M44.1229 0.91243L31.8264 35.2377L30.4827 28.2761C28.2093 20.2434 21.0795 11.516 13.123 7.17649L24.3862 51.1964H37.664L57.3999 0.91243H44.1229Z" stroke="url(#paint3_linear_2018_1423)" stroke-width="5" mask="url(#path-4-inside-4_2018_1423)"/>
</g>
<g id="path17">
<mask id="path-5-inside-5_2018_1423" fill="white">
<path d="M20.4082 0.91243H0.20667L0 1.92951C15.7584 6.10674 26.195 16.1758 30.4829 28.2783L26.0913 5.14375C25.3683 1.9288 23.1464 1.01848 20.4082 0.91243Z"/>
</mask>
<path d="M20.4082 0.91243H0.20667L0 1.92951C15.7584 6.10674 26.195 16.1758 30.4829 28.2783L26.0913 5.14375C25.3683 1.9288 23.1464 1.01848 20.4082 0.91243Z" stroke="url(#paint4_linear_2018_1423)" stroke-width="5" mask="url(#path-5-inside-5_2018_1423)"/>
</g>
</g>
</g>
<defs>
<linearGradient id="paint0_linear_2018_1423" x1="64.8148" y1="0.91243" x2="64.8148" y2="51.2498" gradientUnits="userSpaceOnUse">
<stop stop-color="#FB8A05"/>
<stop offset="1" stop-color="#9E00FF"/>
</linearGradient>
<linearGradient id="paint1_linear_2018_1423" x1="93.851" y1="-3.05176e-05" x2="93.851" y2="52" gradientUnits="userSpaceOnUse">
<stop stop-color="#FB8A05"/>
<stop offset="1" stop-color="#9E00FF"/>
</linearGradient>
<linearGradient id="paint2_linear_2018_1423" x1="132.473" y1="0.91243" x2="132.473" y2="51.2491" gradientUnits="userSpaceOnUse">
<stop stop-color="#FB8A05"/>
<stop offset="1" stop-color="#9E00FF"/>
</linearGradient>
<linearGradient id="paint3_linear_2018_1423" x1="35.2615" y1="0.91243" x2="35.2615" y2="51.1964" gradientUnits="userSpaceOnUse">
<stop stop-color="#FB8A05"/>
<stop offset="1" stop-color="#9E00FF"/>
</linearGradient>
<linearGradient id="paint4_linear_2018_1423" x1="15.2414" y1="0.91243" x2="15.2414" y2="28.2783" gradientUnits="userSpaceOnUse">
<stop stop-color="#FB8A05"/>
<stop offset="1" stop-color="#9E00FF"/>
</linearGradient>
<clipPath id="clip0_2018_1423">
<rect width="155" height="52" fill="white"/>
</clipPath>
</defs>
</svg>
